<?xml version="1.0" encoding="utf-8"?>
<!-- Generator: Adobe Illustrator 18.1.0, SVG Export Plug-In . SVG Version: 6.00 Build 0)  -->
<svg version="1.1" id="Layer_1" xmlns="http://www.w3.org/2000/svg" xmlns:xlink="http://www.w3.org/1999/xlink" x="0px" y="0px"
	 viewBox="0 0 586 109.3" enable-background="new 0 0 586 109.3" xml:space="preserve">
<rect opacity="0" fill="#FFFFFF" width="586" height="109.3"/>
<path opacity="0.2" fill="#FFFFFF" d="M438.8,94.9l-12.1,1.1c0.3,7.6-0.2,13.5-1.5,17.8c-1.2,4.3-3.4,8.5-6.4,12.5
	c-3.1,4.1-6.7,7.5-11,10.3c-8.8,5.7-18.2,7.4-28.2,5.1c-10-2.3-18.3-8.3-24.8-17.8l75.1-48.8c-7.5-11.3-16.8-18.9-27.7-22.6
	c-7.4-2.5-14.6-3.4-21.6-2.6c1.9-1,3.8-2.1,5.6-3.3c8.6-5.6,15.2-12.2,19.8-19.9c4.6-7.7,6.9-15.8,7-24.4l-12.2-0.1
	c-1.4,14.8-8.3,26.2-20.5,34.2c-6.7,4.3-13.7,6.8-21,7.3c-7.3,0.5-14.3-0.9-20.8-4.2c-6.6-3.4-11.8-8.1-15.8-14.2
	c-6.1-9.4-7.9-19.5-5.4-30.4c2.5-10.9,8.8-19.7,19-26.3c12.7-8.3,25.9-9.9,39.6-4.9l5.1-10.8c-5.2-2.6-10.5-4-15.9-4.4
	c-5.3-0.4-11.1,0.2-17.4,1.9s-12.1,4.3-17.6,7.9c-8.8,5.7-15.5,12.8-20.1,21.3c-4.6,8.5-6.7,17.5-6.2,27.1
	c0.4,9.6,3.3,18.4,8.5,26.5c0.6,1,1.3,1.9,2,2.8c-6.3-3.8-13.5-6.1-21.5-6.9c-11.5-1.1-23.1,2-34.5,9.3l48.8,75.1
	c-9.8,6.1-19.8,8.1-29.9,6.2c-10.1-2-18-7.4-23.7-16.2c-2.8-4.3-4.7-8.9-5.8-13.8c-1.1-5-1.4-9.7-0.8-14.1c0.6-4.4,2.6-10,5.9-16.8
	l-10.6-6c-3.9,6.8-6.4,13.2-7.4,19.5c-1.1,6.2-0.9,12.4,0.3,18.4c1.3,6.1,3.9,12.2,7.9,18.3c8.8,13.6,20.2,21.4,34.1,23.3
	c13.9,1.9,26.5-0.8,37.8-8.1c8.9-5.8,15.5-13.4,19.8-22.8c0.1,10.3,3,19.9,8.8,28.9c7.3,11.3,17.7,18.9,31.2,22.8
	c13.5,3.9,27,1.5,40.6-7.3c6.1-4,11-8.5,14.7-13.5c3.7-5,6.3-10.6,7.8-16.7C439.2,109.6,439.6,102.7,438.8,94.9z M345.1,55.5
	c5.6,1.1,11.2,1.3,16.7,0.6c-1.4,0.8-2.8,1.6-4.2,2.5c-8.2,5.3-14.2,11.9-18.1,19.7c-0.3-8.7-3.1-17.1-8.5-25.4
	c-0.8-1.3-1.7-2.5-2.6-3.7C333.3,52.2,338.9,54.3,345.1,55.5z M315.5,106.7l-40.4-62.2c6.7-2.3,12.6-3.2,17.8-2.7
	c5.2,0.5,10.3,2.3,15.3,5.5c5,3.1,9.1,7.2,12.4,12.2c5.3,8.2,7.3,17,5.8,26.3C325.3,92.5,321.7,99.5,315.5,106.7z M348.3,90.4
	c2.5-9.1,7.8-16.3,16-21.6c5-3.2,10.4-5.2,16.3-6.1c5.9-0.8,11.3-0.4,16.3,1.2s10,4.9,15.2,9.7L349.8,114
	C347,104.9,346.5,97,348.3,90.4z"/>
<g>
</g>
<g>
</g>
<g>
</g>
<g>
</g>
<g>
</g>
<g>
</g>
</svg>
